<svg width="365" height="308" viewBox="0 0 365 308" fill="none" xmlns="http://www.w3.org/2000/svg">
<path d="M242.5 182.5H156C156.648 143.994 158.82 115.322 161.817 94C168.066 49.5389 177.903 37.0415 185 34L177 8.50003C190.2 2.10003 211.333 5.33338 220 8.50005L211.5 34C234.7 40.4001 241.833 135.667 242.5 182.5Z" stroke="#FF9A0B" stroke-width="9"/>
<path d="M217 110H92C104.5 154 102.824 167 160.5 167C209.5 167 206 131 217 110Z" stroke="#FF9A0B" stroke-width="9"/>
<path d="M34.6154 255.015C31.9984 258.068 28.0135 259.595 22.6606 259.595C17.3077 259.595 13.3228 258.068 10.7058 255.015C8.08881 251.962 6.78033 247.739 6.78033 242.347V220.4H9.51625V242.347C9.51625 252.22 13.8977 257.156 22.6606 257.156C31.4235 257.156 35.8049 252.22 35.8049 242.347V220.4H38.5408V242.347C38.5408 247.739 37.2323 251.962 34.6154 255.015ZM53.0364 259V220.162H54.3448L79.6819 249.305C80.5938 250.336 81.4265 251.367 82.1799 252.398C82.9729 253.389 83.3892 253.905 83.4289 253.944C83.3496 252.993 83.3099 251.129 83.3099 248.354V220.4H86.0459V259.238H84.7374L58.9245 229.619L55.6533 225.634C55.7326 226.427 55.7723 228.29 55.7723 231.224V259H53.0364ZM100.91 259V220.4H103.646V259H100.91ZM148.559 257.097C145.585 258.762 141.442 259.595 136.128 259.595C130.855 259.595 126.196 257.692 122.151 253.885C118.147 250.079 116.144 245.36 116.144 239.73C116.144 234.059 117.889 229.321 121.378 225.515C124.907 221.708 129.447 219.805 134.998 219.805C139.479 219.805 143.86 220.499 148.143 221.887L147.429 224.147C143.305 222.878 139.043 222.243 134.641 222.243C130.24 222.243 126.533 223.929 123.519 227.299C120.546 230.63 119.059 234.734 119.059 239.611C119.059 244.448 120.783 248.572 124.233 251.982C127.722 255.392 131.747 257.097 136.307 257.097C140.867 257.097 144.653 256.462 147.667 255.193L148.559 257.097ZM158.905 259V220.4H176.926V222.779H161.641V236.815H175.439V239.135H161.641V256.502H177.521V259H158.905ZM189.063 259V220.578C192.473 220.301 195.368 220.162 197.747 220.162C201.395 220.162 204.408 221.113 206.787 223.017C209.167 224.88 210.356 227.557 210.356 231.046C210.356 233.385 209.682 235.546 208.334 237.529C206.986 239.512 205.459 241.117 203.754 242.347C208.473 248.611 211.387 252.358 212.497 253.588C214.757 255.927 217.216 257.255 219.872 257.573L219.813 259.416C217.592 259.377 215.788 259.059 214.4 258.465C213.013 257.83 211.625 256.78 210.237 255.312C208.889 253.845 205.895 249.9 201.256 243.477C198.044 243.477 194.892 243.377 191.799 243.179V259H189.063ZM199.769 241.217C201.316 241.217 202.981 240.186 204.765 238.124C206.55 236.062 207.442 233.663 207.442 230.927C207.442 228.191 206.51 226.109 204.646 224.682C202.783 223.255 200.364 222.541 197.39 222.541C195.804 222.541 193.941 222.62 191.799 222.779V240.919C194.654 241.117 197.311 241.217 199.769 241.217ZM229.199 245.618L223.668 259H220.872L237.05 220.162H238.656L254.952 259H251.919L246.328 245.618H229.199ZM237.704 224.563C237.109 226.347 236.574 227.834 236.098 229.024L230.151 243.298H245.377L239.488 229.083C238.576 226.863 237.982 225.356 237.704 224.563ZM281.281 256.978H279.676L268.434 229.678C267.959 228.607 267.483 227.358 267.007 225.931C267.007 225.971 266.967 226.189 266.888 226.585C266.848 226.982 266.789 227.517 266.71 228.191C266.63 228.826 266.551 229.361 266.472 229.797L262.011 259H259.335L265.639 220.162H267.245L279.259 248.651C280.211 251.03 280.687 252.279 280.687 252.398C280.964 251.565 281.499 250.336 282.292 248.711L295.675 220.162H297.281L303.169 259H300.314L296.091 229.678C295.814 227.735 295.675 226.446 295.675 225.812L293.95 229.738L281.281 256.978ZM313.983 259V220.4H316.719V259H313.983ZM361.631 257.097C358.658 258.762 354.514 259.595 349.201 259.595C343.927 259.595 339.268 257.692 335.224 253.885C331.219 250.079 329.217 245.36 329.217 239.73C329.217 234.059 330.961 229.321 334.451 225.515C337.98 221.708 342.52 219.805 348.071 219.805C352.551 219.805 356.933 220.499 361.215 221.887L360.501 224.147C356.378 222.878 352.115 222.243 347.714 222.243C343.313 222.243 339.605 223.929 336.592 227.299C333.618 230.63 332.131 234.734 332.131 239.611C332.131 244.448 333.856 248.572 337.306 251.982C340.795 255.392 344.819 257.097 349.379 257.097C353.939 257.097 357.726 256.462 360.739 255.193L361.631 257.097Z" fill="black"/>
<path d="M130.432 297.175C133.929 297.175 136.732 296.232 138.84 294.347C140.974 292.437 142.04 289.572 142.04 285.752C142.04 281.932 140.837 278.894 138.431 276.637C136.05 274.379 133.098 273.251 129.576 273.251C127.319 273.251 125.359 273.313 123.697 273.437V296.877C125.31 297.075 127.554 297.175 130.432 297.175ZM129.576 271.614C133.669 271.614 137.092 272.891 139.845 275.446C142.598 277.976 143.975 281.424 143.975 285.789C143.975 287.997 143.615 289.957 142.896 291.668C142.201 293.355 141.234 294.707 139.994 295.724C137.439 297.782 134.252 298.812 130.432 298.812C127.926 298.812 125.086 298.675 121.911 298.403V271.874C124.441 271.7 126.996 271.614 129.576 271.614ZM152.176 298.477V274.33H163.45V275.818H153.888V284.599H162.52V286.05H153.888V296.914H163.822V298.477H152.176ZM175.917 275.372C174.578 275.372 173.486 275.694 172.643 276.339C171.799 276.984 171.378 277.889 171.378 279.055C171.378 280.394 171.936 281.597 173.052 282.664C173.846 283.433 174.863 284.252 176.103 285.12C177.368 285.963 178.236 286.571 178.707 286.943C179.179 287.315 179.749 287.823 180.419 288.468C181.634 289.684 182.242 291.085 182.242 292.673C182.242 294.731 181.548 296.294 180.159 297.361C178.794 298.403 176.872 298.923 174.391 298.923C171.936 298.923 169.877 298.278 168.215 296.989L169.108 295.686C170.795 296.827 172.581 297.398 174.466 297.398C176.351 297.398 177.815 297.001 178.856 296.207C179.923 295.414 180.456 294.297 180.456 292.859C180.456 291.618 179.923 290.477 178.856 289.436C178.112 288.692 177.108 287.885 175.843 287.017C174.602 286.149 173.734 285.529 173.238 285.157C172.742 284.76 172.159 284.239 171.489 283.594C170.224 282.329 169.592 280.866 169.592 279.204C169.592 277.542 170.175 276.24 171.341 275.297C172.531 274.355 174.168 273.883 176.252 273.883C178.335 273.883 180.208 274.293 181.87 275.111L181.238 276.488C179.7 275.744 177.926 275.372 175.917 275.372ZM189.473 298.477V274.33H191.185V298.477H189.473ZM210.575 275.483C207.821 275.483 205.502 276.537 203.617 278.646C201.757 280.729 200.826 283.297 200.826 286.348C200.826 289.398 201.881 291.991 203.989 294.124C206.097 296.232 208.578 297.286 211.43 297.286C214.308 297.286 216.54 296.951 218.127 296.282V286.348H219.839V297.063C217.904 298.254 215.163 298.849 211.616 298.849C208.069 298.849 205.08 297.646 202.649 295.24C200.219 292.834 199.003 289.882 199.003 286.385C199.003 282.862 200.095 279.911 202.277 277.53C204.485 275.148 207.325 273.958 210.798 273.958C213.601 273.958 216.342 274.392 219.02 275.26L218.574 276.674C215.994 275.88 213.328 275.483 210.575 275.483ZM228.333 298.477V274.181H229.151L245.001 292.412C245.572 293.057 246.093 293.702 246.564 294.347C247.06 294.967 247.32 295.29 247.345 295.314C247.296 294.719 247.271 293.553 247.271 291.817V274.33H248.982V298.626H248.164L232.016 280.097L229.97 277.604C230.019 278.1 230.044 279.266 230.044 281.101V298.477H228.333Z" fill="black"/>
</svg>
